<?xml version="1.0" standalone="no"?>
<!DOCTYPE svg PUBLIC "-//W3C//DTD SVG 20010904//EN"
 "http://www.w3.org/TR/2001/REC-SVG-20010904/DTD/svg10.dtd">
<svg version="1.0" xmlns="http://www.w3.org/2000/svg"
 width="225.000000pt" height="225.000000pt" viewBox="0 0 225.000000 225.000000"
 preserveAspectRatio="xMidYMid meet">

<g transform="translate(0.000000,225.000000) scale(0.100000,-0.100000)"
fill="#000000" stroke="none">
<path d="M765 1789 c-555 -16 -350 -44 320 -44 653 0 942 27 425 40 -124 3
-279 7 -345 9 -66 1 -246 -1 -400 -5z"/>
<path d="M330 1680 c-10 -41 -10 -54 0 -60 30 -19 411 -39 740 -40 365 0 837
24 857 44 3 3 0 28 -7 56 -11 45 -15 51 -34 46 -168 -41 -1423 -41 -1530 0
-10 4 -17 -11 -26 -46z"/>
<path d="M305 1558 c-4 -12 -205 -961 -205 -969 0 -2 209 -3 465 -1 l465 2 0
38 c0 34 -3 38 -45 55 -126 52 -178 202 -179 517 -1 96 1 211 4 255 l5 80
-170 6 c-159 6 -241 13 -308 25 -17 4 -29 1 -32 -8z"/>
<path d="M1850 1560 c-30 -4 -137 -11 -238 -15 l-182 -8 7 -51 c4 -28 8 -143
8 -256 0 -344 -49 -493 -180 -547 -42 -17 -45 -21 -45 -55 l0 -38 465 -2 c256
-2 465 -1 465 2 0 3 -47 223 -103 490 -93 436 -105 485 -122 486 -11 1 -45 -2
-75 -6z"/>
<path d="M1124 1532 c-220 -2 -253 -4 -258 -18 -14 -36 -19 -371 -7 -473 30
-255 91 -331 266 -331 175 0 236 76 266 331 12 107 7 439 -8 475 -8 18 -22 19
-259 16z"/>
<path d="M100 495 l0 -45 465 0 465 0 0 45 0 45 -465 0 -465 0 0 -45z"/>
<path d="M1220 495 l0 -45 465 0 465 0 0 45 0 45 -465 0 -465 0 0 -45z"/>
</g>
</svg>
